<svg width="105" height="30" viewBox="0 0 105 30" fill="none" xmlns="http://www.w3.org/2000/svg">
<path d="M0 24.9176V26.8235V28.0941C0 29.8588 1.41176 30 3.17647 30H6.03529V26.8235V24.9176V12H0V24.9176Z" fill="#1479F3"/>
<path d="M0 6V3.17647C0 1.41176 1.41176 0 3.17647 0H6.35294H12.6706H18.9882H24.1412H30.1765V6.31765V12.6353V18.5647V18.9882V24.9177V26.8235C30.1765 28.5882 28.7647 30 27 30H24.1412H18.9882H12.0706V24.0706H18.9882H23.0471C23.6471 24.0706 24.1412 23.5765 24.1412 22.9765V18.9882V18.5647V12.6706V6H18.9882H12.6706H6.31765H0Z" fill="#1479F3"/>
<path d="M36.247 23.7529C36.1411 23.6471 36.0706 23.5059 36.0706 23.3294V6.70589C36.0706 6.52942 36.1411 6.35295 36.247 6.24707C36.3529 6.14118 36.4941 6.07059 36.7059 6.07059H43.5529C45.6 6.07059 47.2235 6.56471 48.4235 7.51765C49.5882 8.50589 50.1882 9.91765 50.1882 11.7529C50.1882 13.5882 49.5882 15 48.4235 15.9177C47.2588 16.8706 45.6353 17.3294 43.5529 17.3294H39.8117V23.2941C39.8117 23.4706 39.7411 23.6471 39.6353 23.7529C39.5294 23.8588 39.3529 23.9294 39.1764 23.9294H36.7411C36.5294 23.9294 36.3882 23.8588 36.247 23.7529ZM43.4117 14.4706C44.4 14.4706 45.1411 14.2235 45.6706 13.7647C46.2 13.3059 46.447 12.6 46.447 11.7177C46.447 10.8353 46.2 10.1294 45.7059 9.6353C45.2117 9.14118 44.4353 8.89412 43.4117 8.89412H39.7411V14.4706H43.4117Z" fill="#58595B"/>
<path d="M54.3882 23.7529C54.2823 23.6471 54.2117 23.5059 54.2117 23.3294V6.70589C54.2117 6.52942 54.2823 6.35295 54.3882 6.24707C54.4941 6.14118 54.6353 6.07059 54.847 6.07059H61.447C63.5294 6.07059 65.1882 6.56471 66.3529 7.51765C67.5529 8.50589 68.1176 9.88236 68.1176 11.6471C68.1176 12.8824 67.8353 13.9412 67.2353 14.7882C66.6353 15.6353 65.7882 16.2353 64.7294 16.6235L68.4353 23.1529C68.4706 23.2588 68.5058 23.3647 68.5058 23.4353C68.5058 23.5765 68.4353 23.7177 68.3294 23.8235C68.2235 23.9294 68.0823 23.9647 67.9764 23.9647H65.6117C65.3294 23.9647 65.1176 23.8941 64.9764 23.7882C64.8353 23.6824 64.6941 23.5059 64.5529 23.2941L61.2706 17.2235H57.7764V23.3647C57.7764 23.5412 57.7059 23.6824 57.6 23.7882C57.4941 23.8941 57.3176 23.9647 57.1411 23.9647H54.7764C54.6706 23.9294 54.5294 23.8588 54.3882 23.7529ZM61.3764 14.2588C62.4 14.2588 63.1764 14.0471 63.6706 13.5882C64.1647 13.1294 64.447 12.4941 64.447 11.6118C64.447 10.7294 64.2 10.0588 63.6706 9.60001C63.1764 9.14118 62.4 8.89412 61.3764 8.89412H57.8117V14.2588H61.3764Z" fill="#58595B"/>
<path d="M72.8823 23.7529C72.7765 23.6471 72.7059 23.5059 72.7059 23.3294V6.70589C72.7059 6.52942 72.7765 6.35295 72.8823 6.24707C72.9882 6.14118 73.1294 6.07059 73.3412 6.07059H84.6C84.7765 6.07059 84.9529 6.14118 85.0588 6.24707C85.1647 6.35295 85.2353 6.52942 85.2353 6.70589V8.40001C85.2353 8.57648 85.1647 8.75295 85.0588 8.85883C84.9529 8.96471 84.7765 9.0353 84.6 9.0353H76.2353V13.5177H84.0353C84.2118 13.5177 84.3882 13.5882 84.4941 13.6941C84.6 13.8 84.6706 13.9765 84.6706 14.1529V15.7765C84.6706 15.9529 84.6 16.1294 84.4941 16.2353C84.3882 16.3412 84.2118 16.4118 84.0353 16.4118H76.2353V21.0353H84.8117C84.9882 21.0353 85.1647 21.1059 85.2706 21.2118C85.3765 21.3177 85.4471 21.4588 85.4471 21.6706V23.4C85.4471 23.5765 85.3765 23.7529 85.2706 23.8588C85.1647 23.9647 84.9882 24.0353 84.8117 24.0353H73.3412C73.1647 23.9294 73.0235 23.8588 72.8823 23.7529Z" fill="#58595B"/>
<path d="M90.0706 23.7529C89.9647 23.6471 89.8941 23.5059 89.8941 23.3294V6.70589C89.8941 6.52942 89.9647 6.35295 90.0706 6.24707C90.1765 6.14118 90.3176 6.07059 90.5294 6.07059H97.3765C99.4235 6.07059 101.047 6.56471 102.247 7.51765C103.447 8.47059 104.012 9.91765 104.012 11.7529C104.012 13.5882 103.412 15 102.247 15.9177C101.082 16.8706 99.4588 17.3294 97.3765 17.3294H93.6353V23.2941C93.6353 23.4706 93.5647 23.6471 93.4588 23.7529C93.3529 23.8588 93.1765 23.9294 93 23.9294H90.5647C90.3529 23.9294 90.2118 23.8588 90.0706 23.7529ZM97.2353 14.4706C98.2235 14.4706 98.9647 14.2235 99.4941 13.7647C100.024 13.3059 100.271 12.6 100.271 11.7177C100.271 10.8353 100.024 10.1294 99.5294 9.6353C99.0353 9.14118 98.2588 8.89412 97.2353 8.89412H93.5647V14.4706H97.2353Z" fill="#58595B"/>
<path d="M17.2941 11.9647H12.8823C12.4235 11.9647 12.0706 12.3176 12.0706 12.7765V17.1882C12.0706 17.6471 12.4235 18 12.8823 18H17.2941C17.7529 18 18.1059 17.6471 18.1059 17.1882V12.7765C18.1059 12.3176 17.7529 11.9647 17.2941 11.9647Z" fill="#FF9E00"/>
</svg>