<svg width="80" height="80" viewBox="0 0 80 80" fill="none" xmlns="http://www.w3.org/2000/svg">
    <circle cx="40" cy="40" r="40" fill="#EAFAF3"/>
    <path d="M51.7188 27.0312H44.6875H35.3125H28.2812C26.3427 27.0312 24.7656 28.6864 24.7656 30.625V47.0312C24.7656 48.9698 26.3427 50.5469 28.2812 50.5469H40H51.7188C53.6573 50.5469 55.2344 48.9698 55.2344 47.0312V30.625C55.2344 28.6864 53.6573 27.0312 51.7188 27.0312ZM38.8281 51.7188V57.6562H37.6562C37.0085 57.6562 36.4844 58.1804 36.4844 58.8281C36.4844 59.4759 37.0085 60 37.6562 60H42.3438C42.9915 60 43.5156 59.4759 43.5156 58.8281C43.5156 58.1804 42.9915 57.6562 42.3438 57.6562H41.1719V51.7188C41.1719 51.071 40.6477 50.5469 40 50.5469C39.3523 50.5469 38.8281 51.071 38.8281 51.7188ZM36.4844 25.8594V23.5156C36.4844 22.8691 37.0097 22.3438 37.6562 22.3438H42.3438C42.9903 22.3438 43.5156 22.8691 43.5156 23.5156V25.8594C43.5156 26.5071 44.0398 27.0312 44.6875 27.0312C45.3352 27.0312 45.8594 26.5071 45.8594 25.8594V23.5156C45.8594 21.577 44.2823 20 42.3438 20H37.6562C35.7177 20 34.1406 21.577 34.1406 23.5156V25.8594C34.1406 26.5071 34.6648 27.0312 35.3125 27.0312C35.9602 27.0312 36.4844 26.5071 36.4844 25.8594Z" fill="#B1ECD4"/>
    <path d="M44.0312 37.7734L36.9999 34.2578C36.6484 34.0938 36.2031 34.0937 35.875 34.3048C35.5235 34.5391 35.3125 34.914 35.3125 35.3126V42.3438C35.3125 42.7423 35.5235 43.1171 35.875 43.3516C36.1644 43.5323 36.568 43.5837 36.9999 43.3986L44.0312 39.883C44.4297 39.6719 44.6875 39.2734 44.6875 38.8281C44.6875 38.3828 44.4297 37.9844 44.0312 37.7734V37.7734ZM58.8281 24.6875H21.1719C20.5155 24.6875 20 25.203 20 25.8594C20 26.5155 20.5155 27.0312 21.1719 27.0312H22.4219V51.7188C22.4219 52.3749 22.9374 52.8906 23.5938 52.8906H56.4062C57.0626 52.8906 57.5781 52.3749 57.5781 51.7188V27.0312H58.8281C59.4845 27.0312 60 26.5155 60 25.8594C60 25.203 59.4845 24.6875 58.8281 24.6875ZM52.8906 47.0312C52.8906 47.6874 52.3751 48.2031 51.7188 48.2031H28.2812C27.6249 48.2031 27.1094 47.6874 27.1094 47.0312V30.625C27.1094 29.9687 27.6249 29.4531 28.2812 29.4531H51.7188C52.3751 29.4531 52.8906 29.9687 52.8906 30.625V47.0312Z" fill="#2DCA8C"/>
</svg>
